<svg id="Layer_1" data-name="Layer 1" xmlns="http://www.w3.org/2000/svg" viewBox="0 0 18.11 17.89"><title>info</title><path d="M12.5,21.45a9,9,0,1,1,9.05-8.95h0A9,9,0,0,1,12.5,21.45Zm0-16.18a7.23,7.23,0,1,0,7.31,7.23h0A7.27,7.27,0,0,0,12.5,5.27Z" transform="translate(-3.45 -3.55)" fill="#00b4e1"/><path d="M12.5,16.59a.86.86,0,0,1-.87-.85V12.5a.87.87,0,0,1,1.74,0h0v3.22a.86.86,0,0,1-.86.87Z" transform="translate(-3.45 -3.55)" fill="#00b4e1"/><path d="M12.5,10.12a.86.86,0,0,1-.87-.84.86.86,0,0,1,1.72,0,.84.84,0,0,1-.27.61A.88.88,0,0,1,12.5,10.12Z" transform="translate(-3.45 -3.55)" fill="#00b4e1"/></svg>