<svg id="Layer_1" data-name="Layer 1" xmlns="http://www.w3.org/2000/svg" viewBox="0 0 25 25"><g id="Group_2810" data-name="Group 2810"><g id="Group_2809" data-name="Group 2809"><path id="Path_3098" data-name="Path 3098" d="M24.61,19.31,15.05,2.75a2.94,2.94,0,0,0-4-1.07A2.85,2.85,0,0,0,10,2.75L.39,19.31a2.94,2.94,0,0,0,2.55,4.41H22.06A2.94,2.94,0,0,0,25,20.77a3,3,0,0,0-.39-1.46Zm-1.27,2.21a1.47,1.47,0,0,1-1.28.74H2.94A1.48,1.48,0,0,1,1.66,20L11.22,3.48a1.48,1.48,0,0,1,2-.54,1.55,1.55,0,0,1,.54.54L23.34,20A1.45,1.45,0,0,1,23.34,21.52Z" fill="#de9100"/></g></g><g id="Group_2812" data-name="Group 2812"><g id="Group_2811" data-name="Group 2811"><rect id="Rectangle_2143" data-name="Rectangle 2143" x="11.64" y="7.66" width="1.72" height="8.59" rx="0.7" fill="#de9100"/></g></g><g id="Group_2814" data-name="Group 2814"><g id="Group_2813" data-name="Group 2813"><path id="Path_3099" data-name="Path 3099" d="M12.5,18a1.15,1.15,0,1,0,1.15,1.14A1.15,1.15,0,0,0,12.5,18Z" fill="#de9100"/></g></g></svg>